<?xml version="1.0" encoding="UTF-8" standalone="no"?>
<!-- Created with Inkscape (http://www.inkscape.org/) -->

<svg
   xmlns:dc="http://purl.org/dc/elements/1.1/"
   xmlns:cc="http://creativecommons.org/ns#"
   xmlns:rdf="http://www.w3.org/1999/02/22-rdf-syntax-ns#"
   xmlns:svg="http://www.w3.org/2000/svg"
   xmlns="http://www.w3.org/2000/svg"
   xmlns:sodipodi="http://sodipodi.sourceforge.net/DTD/sodipodi-0.dtd"
   xmlns:inkscape="http://www.inkscape.org/namespaces/inkscape"
   width="800"
   height="600"
   viewBox="0 0 211.66666 158.75"
   version="1.1"
   id="svg8"
   inkscape:version="0.92.4 (5da689c313, 2019-01-14)"
   sodipodi:docname="vœux.svg">
  <defs
     id="defs2" />
  <sodipodi:namedview
     id="base"
     pagecolor="#ffffff"
     bordercolor="#666666"
     borderopacity="1.0"
     inkscape:pageopacity="0.0"
     inkscape:pageshadow="2"
     inkscape:zoom="0.35"
     inkscape:cx="-118.57143"
     inkscape:cy="560"
     inkscape:document-units="mm"
     inkscape:current-layer="layer1"
     showgrid="false"
     units="px"
     inkscape:window-width="1920"
     inkscape:window-height="974"
     inkscape:window-x="-11"
     inkscape:window-y="-11"
     inkscape:window-maximized="1" />
  <metadata
     id="metadata5">
    <rdf:RDF>
      <cc:Work
         rdf:about="">
        <dc:format>image/svg+xml</dc:format>
        <dc:type
           rdf:resource="http://purl.org/dc/dcmitype/StillImage" />
        <dc:title></dc:title>
      </cc:Work>
    </rdf:RDF>
  </metadata>
  <g
     inkscape:label="Calque 1"
     inkscape:groupmode="layer"
     id="layer1"
     transform="translate(0,-138.24998)">
    <path
       id="path3713"
       style="opacity:0.11000001;fill:#ff0000;fill-opacity:1;stroke-width:0.26458332"
       d="m 56.190836,182.94181 -23.045104,30.11444 -37.8715907,-1.91151 21.5190997,31.2229 -13.5211372,35.42781 36.3445502,-10.81794 29.515511,23.80733 0.70435,-28.32127 c -0.272835,-0.69162 -0.457352,-1.44002 -0.682129,-2.06395 -0.124366,-0.0561 -0.24727,-0.11484 -0.366386,-0.18087 -1.805044,-1.00059 -3.223128,-2.51398 -4.146,-4.34909 -0.257879,-0.55899 -0.542507,-1.10631 -0.773596,-1.6769 -0.141034,-0.34823 -0.114372,-0.77435 -0.340548,-1.07435 -0.42428,-0.56277 -1.061151,-0.93068 -1.55236,-1.43609 -0.181027,-0.18625 -0.267044,-0.45363 -0.45682,-0.63097 -3.919971,-3.66302 1.098358,1.56389 -2.641182,-2.43034 -0.264744,-0.39947 -0.502069,-0.81853 -0.794267,-1.19838 -0.401683,-0.52218 -0.934768,-0.94391 -1.283642,-1.50275 -0.0808,-0.12943 0.183296,-0.36048 0.06253,-0.45372 -0.533537,-0.41193 -1.229471,-0.55848 -1.812292,-0.8971 -1.352993,-0.78609 -1.524753,-1.01637 -2.562118,-1.94304 -1.421222,-1.23833 -2.967271,-2.43172 -4.013708,-4.02921 -0.03647,-0.0557 0.232891,9.3e-4 0.192753,-0.0522 -0.05193,-0.0687 -1.045493,-0.9744 -1.260905,-1.17151 -1.163841,-0.59378 -2.208234,-1.18183 -3.241663,-1.9885 -0.453139,-0.35373 -0.841851,-0.78467 -1.290877,-1.1436 -1.772663,-1.41696 -3.691827,-2.64506 -5.443595,-4.08916 -4.330806,-3.57016 -2.92438,-7.41824 0.660425,-7.34426 1.194935,0.0247 2.631834,0.48507 4.179073,1.53686 v 5.3e-4 c 2.408654,1.63737 4.612406,3.52932 6.872965,5.35058 0.07591,0.0611 0.189149,0.0575 0.270268,0.11162 1.051637,0.70082 1.008398,1.17617 1.02371,0.64027 1.106639,0.72501 2.386946,1.44571 3.274735,2.46652 0.512697,0.58952 0.856027,1.30848 1.326534,1.93218 0.475979,0.63096 1.824232,1.56644 2.412256,2.07739 0.342783,0.30592 0.662939,0.63929 1.028361,0.91777 0.483157,0.36821 1.168595,0.41484 1.63711,0.80151 2.018185,1.66563 3.522826,3.59287 5.000728,5.70818 1.059836,0.60103 1.637366,1.44868 2.530078,2.33164 0.299134,0.29587 0.70335,0.48979 0.952397,0.82889 1.425172,1.94055 1.824833,2.85688 2.636532,4.60798 L 101.83766,232.16205 66.076023,219.55094 Z m 13.08499,77.51103 c 0.109024,0.10697 0.218425,0.21378 0.351916,0.28474 0.05797,0.0308 0.149353,0.0693 0.24908,0.10749 l 0.0036,-0.13023 c -0.199311,-0.0913 -0.403029,-0.17459 -0.604613,-0.262 z"
       inkscape:connector-curvature="0" />
    <path
       sodipodi:type="star"
       id="path3715"
       sodipodi:sides="5"
       sodipodi:cx="159.25368"
       sodipodi:cy="182.90989"
       sodipodi:r1="63.450481"
       sodipodi:r2="31.725243"
       sodipodi:arg1="0.26520712"
       sodipodi:arg2="0.89352565"
       inkscape:flatsided="false"
       inkscape:rounded="0"
       inkscape:randomized="0"
       d="m 220.48582,199.54085 -41.35093,8.09208 -16.77642,38.65144 -20.47417,-36.82648 -41.943893,-4.01137 28.697203,-30.8521 -9.14635,-41.1306 38.21002,17.75884 36.29114,-21.40874 -5.08211,41.82766 z"
       inkscape:transform-center-x="-0.95943326"
       inkscape:transform-center-y="5.1392468"
       style="fill:#ffff00;stroke-width:0.26458332" />
    <path
       sodipodi:type="star"
       id="path3717"
       sodipodi:sides="5"
       sodipodi:cx="59.720242"
       sodipodi:cy="208.55354"
       sodipodi:r1="47.069798"
       sodipodi:r2="23.534899"
       sodipodi:arg1="0.52113814"
       sodipodi:arg2="1.1494567"
       inkscape:flatsided="false"
       inkscape:rounded="0"
       inkscape:randomized="0"
       d="m 100.54167,231.98807 -31.196048,-1.95795 -19.298421,24.58857 -7.777995,-30.27424 -29.34866,-10.7556 26.388982,-16.75257 1.159952,-31.2359 24.087283,19.92059 30.065549,-8.54925 -11.502222,29.06417 z"
       inkscape:transform-center-x="2.9891349"
       inkscape:transform-center-y="1.5559941"
       style="stroke-width:0.26458332;fill:#0000ff" />
    <path
       sodipodi:type="star"
       id="path3719"
       sodipodi:sides="5"
       sodipodi:cx="145.14285"
       sodipodi:cy="241.81544"
       sodipodi:r1="60.177799"
       sodipodi:r2="30.088898"
       sodipodi:arg1="1.1015308"
       sodipodi:arg2="1.7298493"
       inkscape:flatsided="false"
       inkscape:rounded="0"
       inkscape:randomized="0"
       d="m 172.35714,295.48807 -31.97986,-23.96352 -37.87045,12.75897 12.90834,-37.81979 -23.837112,-32.07419 39.957652,0.5896 23.1383,-32.58191 11.78685,38.18418 38.13736,11.93746 -32.67297,23.00953 z"
       inkscape:transform-center-x="-2.9452868"
       inkscape:transform-center-y="-2.8728001"
       style="stroke-width:0.26458332;fill:#ff0000" />
    <path
       sodipodi:type="star"
       id="path3721"
       sodipodi:sides="5"
       sodipodi:cx="152.70239"
       sodipodi:cy="257.69046"
       sodipodi:r1="19.344072"
       sodipodi:r2="9.6720362"
       sodipodi:arg1="-0.11200263"
       sodipodi:arg2="0.5163159"
       inkscape:flatsided="false"
       inkscape:rounded="0"
       inkscape:randomized="0"
       d="m 171.92526,255.5284 -10.81164,6.93695 -0.41479,12.83903 -9.93841,-8.13885 -12.33883,3.57299 4.66937,-11.96703 -7.21102,-10.6308 12.82424,0.74281 7.88216,-10.14319 3.25645,12.42612 z"
       inkscape:transform-center-x="-1.2002051"
       inkscape:transform-center-y="-0.66811481"
       style="stroke-width:0.26458332" />
    <path
       sodipodi:type="star"
       style="opacity:0.11000001;fill:#0000ff;stroke-width:0.26458332"
       id="path4543"
       sodipodi:sides="5"
       sodipodi:cx="148.16666"
       sodipodi:cy="154.88094"
       sodipodi:r1="20.424707"
       sodipodi:r2="10.212354"
       sodipodi:arg1="-2.2513176"
       sodipodi:arg2="-1.622999"
       inkscape:flatsided="false"
       inkscape:rounded="0"
       inkscape:randomized="0"
       d="m 135.31547,139.00594 12.31832,5.67655 11.65965,-6.92941 -1.59215,13.46957 10.19329,8.94769 -13.30233,2.6481 -5.35985,12.45938 -6.62914,-11.83296 -13.50586,-1.24736 9.2053,-9.96127 z"
       inkscape:transform-center-x="-0.32933009"
       inkscape:transform-center-y="1.6345157" />
    <text
       xml:space="preserve"
       style="font-style:normal;font-weight:normal;font-size:10.58333302px;line-height:1.25;font-family:sans-serif;letter-spacing:0px;word-spacing:0px;fill:#000000;fill-opacity:1;stroke:none;stroke-width:0.26458332"
       x="25.451159"
       y="162.5038"
       id="text4547"><tspan
         sodipodi:role="line"
         id="tspan4545"
         x="25.451159"
         y="162.5038"
         style="stroke-width:0.26458332;letter-spacing:0px">BONNE ET HEUREUSE ANNEE </tspan><tspan
         sodipodi:role="line"
         x="25.451159"
         y="175.73297"
         style="stroke-width:0.26458332;letter-spacing:0px"
         id="tspan4549" /><tspan
         sodipodi:role="line"
         x="25.451159"
         y="188.96213"
         style="stroke-width:0.26458332;letter-spacing:0px"
         id="tspan4551">                   2022</tspan></text>
  </g>
</svg>
